<?xml version="1.0" standalone="no"?>
<!DOCTYPE svg PUBLIC "-//W3C//DTD SVG 20010904//EN"
 "http://www.w3.org/TR/2001/REC-SVG-20010904/DTD/svg10.dtd">
<svg version="1.0" xmlns="http://www.w3.org/2000/svg"
 width="600.000000pt" height="600.000000pt" viewBox="0 0 600.000000 600.000000"
 preserveAspectRatio="xMidYMid meet">
<metadata>
Created by potrace 1.14, written by Peter Selinger 2001-2017
</metadata>
<g transform="translate(0.000000,600.000000) scale(0.100000,-0.100000)"
fill="#000000" stroke="none">
<path d="M3610 5649 c-19 -4 -51 -10 -70 -13 -78 -12 -279 -79 -415 -139 -27
-12 -115 -54 -195 -93 -80 -40 -147 -70 -149 -68 -2 2 3 12 12 22 10 10 17 22
17 26 0 5 14 28 30 53 17 24 28 48 25 52 -5 9 -124 7 -160 -2 -89 -22 -221
-84 -320 -149 -77 -51 -184 -131 -185 -138 0 -3 9 -6 21 -7 11 -1 44 -7 72
-12 50 -10 93 -18 147 -27 14 -2 34 -6 45 -8 11 -3 29 -5 40 -5 32 -2 50 -17
38 -33 -6 -7 -32 -53 -58 -103 -26 -49 -55 -100 -63 -112 -16 -25 -2 -32 18
-8 16 19 150 83 292 139 172 68 331 126 335 123 3 -4 15 -160 15 -189 -1 -22
1 -22 37 -4 35 19 170 53 241 61 30 4 57 8 60 10 3 2 43 6 90 10 47 4 99 9
115 11 29 2 231 13 366 18 37 2 75 9 86 17 78 56 403 314 403 319 0 8 -46 18
-130 27 -101 12 -366 5 -472 -12 -12 -2 -45 -6 -73 -10 -71 -9 -111 -15 -190
-30 -38 -7 -71 -12 -71 -12 -2 2 129 170 200 257 32 40 31 41 -46 39 -40 -1
-89 -6 -108 -10z"/>
<path d="M760 5504 c-90 -42 -133 -133 -134 -284 0 -94 8 -162 27 -220 9 -25
30 -94 47 -155 17 -60 35 -121 39 -135 5 -14 19 -59 31 -100 11 -41 39 -111
61 -156 32 -65 40 -92 40 -140 2 -106 -34 -195 -126 -319 -87 -117 -133 -191
-180 -282 -46 -92 -85 -199 -85 -232 0 -10 -24 -43 -53 -73 -78 -79 -109 -173
-110 -333 0 -120 24 -293 58 -415 52 -186 80 -368 79 -520 -2 -123 -11 -164
-53 -220 -14 -19 -110 -236 -212 -481 l-186 -446 -2 -87 -2 -88 40 -39 c41
-38 109 -66 138 -54 12 4 14 15 10 45 -4 34 -1 43 19 59 13 10 43 23 66 30 28
7 59 27 90 56 l47 45 -18 63 c-10 34 -31 91 -47 127 -24 56 -28 77 -28 155 1
103 19 164 86 291 94 179 185 295 241 309 73 19 109 -24 112 -132 3 -76 24
-127 48 -117 6 3 46 57 87 121 41 64 80 121 85 127 30 33 226 340 250 391 72
155 96 219 130 340 20 71 41 139 47 150 26 52 -23 -17 -83 -115 -168 -276
-311 -423 -358 -367 -15 19 -20 87 -10 143 11 60 -4 82 -24 35 -16 -37 -29
-29 -44 29 -12 45 0 99 38 171 31 58 148 209 150 193 1 -5 1 -30 0 -56 -1 -31
3 -48 11 -48 6 0 9 3 5 6 -9 10 39 72 109 139 59 58 182 138 259 171 l38 15
-6 -35 c-3 -20 -4 -36 -2 -36 2 0 25 11 52 24 102 51 226 75 306 59 25 -5 26
-7 14 -22 -8 -9 -26 -37 -40 -62 l-25 -46 82 1 c92 1 144 -5 237 -29 110 -27
310 -98 302 -106 -4 -4 -40 -11 -78 -14 -132 -11 -215 -48 -217 -97 -2 -46 3
-56 29 -63 81 -20 116 -82 119 -210 2 -104 6 -127 26 -175 34 -79 123 -129
172 -97 47 31 120 227 142 380 8 57 7 57 104 -14 39 -28 74 -49 77 -45 16 15
-58 195 -111 270 -45 66 -112 144 -178 207 l-69 66 76 28 c41 15 75 30 75 35
0 13 -104 105 -165 146 -155 104 -345 148 -517 120 -30 -4 -48 -4 -48 3 0 17
79 77 150 114 38 20 66 39 60 42 -5 3 -36 7 -67 9 -68 4 -182 -23 -318 -76
-82 -32 -126 -51 -252 -109 -24 -10 -47 -19 -51 -19 -5 0 3 35 18 78 62 174
70 198 77 212 14 34 11 37 -56 35 -114 -3 -234 44 -291 113 l-27 33 -39 -22
c-61 -33 -120 -104 -164 -193 -39 -78 -86 -237 -95 -321 -12 -108 -17 -205
-12 -220 6 -14 9 -14 32 1 20 13 40 15 102 11 78 -6 145 -16 152 -22 8 -9 5
-155 -4 -152 -8 3 -50 -38 -116 -114 -9 -11 -35 -26 -58 -34 -93 -32 -140 -95
-141 -186 0 -65 -42 -143 -99 -184 -53 -39 -53 -39 -69 60 -7 39 -14 81 -17
95 -3 14 -8 41 -11 60 -2 19 -8 49 -13 67 -8 29 -4 40 51 118 67 97 65 74 28
269 l-20 110 26 85 c104 341 179 510 272 612 66 73 76 76 240 75 79 -1 147 1
151 4 14 8 -178 328 -244 408 -73 89 -124 182 -164 300 -78 233 -91 466 -29
506 17 10 93 -20 295 -115 l103 -49 64 -97 c72 -110 85 -133 166 -289 101
-193 135 -288 109 -305 -16 -10 -91 28 -155 78 -27 22 -82 61 -121 88 -70 46
-75 51 -149 184 -42 75 -95 170 -117 211 -22 41 -46 82 -55 90 -8 8 -12 10 -9
4 6 -10 26 -81 87 -309 5 -16 16 -57 25 -90 19 -70 21 -77 34 -130 6 -22 26
-70 45 -106 l36 -66 122 -38 c68 -22 128 -40 133 -41 6 -1 149 -45 320 -97
170 -53 311 -95 312 -93 1 1 -28 38 -65 83 -37 44 -76 92 -87 105 -11 14 -67
81 -124 150 -115 139 -134 176 -182 356 -48 180 -55 233 -36 272 19 37 51 30
174 -41 59 -34 110 -63 111 -65 2 -1 -11 -24 -28 -49 l-33 -47 75 -75 75 -74
73 -3 c89 -4 141 8 170 39 59 63 -2 180 -193 366 -53 51 -80 69 -125 84 -97
30 -296 120 -574 260 -360 181 -460 209 -568 159z"/>
<path d="M396 5164 c-7 -19 -20 -181 -19 -254 1 -200 41 -353 185 -705 45
-110 57 -130 73 -127 31 5 63 48 82 110 20 66 23 261 5 308 -6 16 -29 90 -52
164 -58 190 -57 188 -168 362 -67 106 -102 153 -106 142z"/>
<path d="M3849 4926 c-2 -2 -41 -7 -86 -10 -46 -4 -91 -9 -100 -10 -10 -2 -38
-7 -63 -11 -72 -12 -81 -14 -155 -31 -141 -32 -405 -126 -405 -143 0 -3 67
-30 148 -60 806 -296 1377 -683 1561 -1058 29 -60 66 -172 58 -179 -2 -3 -128
43 -278 101 -151 59 -298 115 -327 125 l-52 19 5 -22 c25 -110 37 -165 40
-182 2 -11 8 -54 15 -95 38 -234 5 -567 -67 -687 -7 -13 -20 -35 -29 -50 -13
-21 -17 -60 -20 -187 -1 -89 -5 -181 -9 -206 -7 -55 -42 -266 -49 -298 -3 -12
-3 -22 -2 -22 2 0 35 44 73 98 89 123 109 147 211 248 255 252 526 321 789
199 105 -49 157 -87 268 -200 119 -121 165 -153 111 -77 -20 27 -46 60 -59 73
-50 51 -62 78 -74 171 -7 60 17 128 58 163 39 32 119 55 197 56 34 1 62 2 62
3 -2 21 -67 168 -113 255 -21 41 -39 88 -39 105 0 45 23 96 64 139 l35 37 -30
57 c-17 32 -52 99 -79 148 -114 212 -124 236 -119 312 1 30 41 54 88 55 21 0
85 -7 143 -16 58 -10 119 -19 135 -20 66 -8 201 -27 223 -31 22 -5 22 -5 8 23
-20 40 -116 137 -196 198 -149 116 -365 239 -630 359 -69 31 -138 62 -155 70
-16 7 -54 23 -84 35 -30 11 -73 29 -95 39 -38 17 -288 110 -434 162 -35 12
-59 26 -55 30 9 9 161 54 213 63 172 31 448 25 643 -14 124 -25 110 5 -26 55
-267 99 -563 172 -822 201 -58 6 -490 15 -496 10z"/>
<path d="M2796 4401 c5 -4 25 -14 44 -21 55 -21 138 -77 198 -133 52 -49 137
-165 128 -175 -3 -2 -20 -6 -40 -7 -45 -5 -103 -35 -198 -103 -77 -55 -90 -68
-65 -69 105 -3 282 -51 392 -106 212 -105 386 -293 466 -504 9 -25 9 -25 -13
-11 -43 28 -230 138 -235 138 -2 0 14 -19 37 -42 57 -58 93 -139 116 -258 11
-62 13 -74 19 -125 3 -27 8 -63 10 -80 3 -16 8 -104 11 -195 l6 -165 -26 37
c-34 48 -64 58 -86 28 -13 -18 -47 -104 -55 -140 -1 -3 -9 -32 -19 -65 -21
-67 -64 -226 -72 -265 -3 -14 -27 -113 -54 -220 -27 -107 -60 -249 -75 -315
-15 -66 -29 -129 -32 -140 -38 -158 -46 -215 -34 -242 7 -14 10 -28 7 -30 -5
-5 -103 120 -194 248 -125 176 -210 249 -286 249 -23 0 -66 -9 -96 -19 -36
-12 -73 -17 -110 -14 -113 9 -137 6 -188 -22 -90 -49 -183 -149 -360 -390 -4
-5 -20 -30 -36 -55 -16 -25 -42 -64 -58 -87 -15 -23 -28 -44 -28 -47 0 -4 -12
-25 -27 -49 -32 -49 -63 -104 -95 -165 -17 -33 -33 -48 -63 -60 -71 -28 -268
-133 -335 -177 -161 -107 -193 -181 -101 -237 42 -25 160 -34 214 -16 113 39
244 185 348 388 41 81 128 212 235 355 233 313 447 486 602 488 134 2 226 -99
305 -333 149 -448 403 -738 749 -856 37 -12 68 -21 68 -19 0 3 12 0 26 -5 36
-14 164 -25 164 -14 0 5 -25 70 -56 144 -30 74 -80 196 -111 270 -31 74 -57
136 -58 138 -2 2 -37 -20 -78 -49 -69 -48 -79 -51 -108 -43 -86 25 -97 136
-35 350 14 48 27 88 28 90 2 2 247 -200 397 -327 19 -16 39 -29 44 -29 6 0 7
29 4 72 -7 85 -17 139 -52 278 -8 36 -17 72 -19 80 -5 21 -68 227 -107 347
-40 125 -59 131 -54 15 5 -92 -3 -112 -37 -94 -53 29 -88 115 -82 205 4 49 27
148 46 195 6 15 12 32 14 39 1 6 7 19 13 30 8 14 10 5 11 -44 0 -34 3 -68 6
-77 10 -26 50 -19 79 15 83 100 114 236 110 483 -3 149 -6 192 -22 271 l-5 30
28 -26 c16 -14 36 -29 45 -32 33 -11 81 45 97 112 9 38 8 170 -1 216 -29 149
-153 418 -310 674 -22 36 -18 36 38 -4 100 -71 149 -40 104 66 -128 307 -386
508 -774 604 -116 28 -133 32 -223 41 -37 3 -76 8 -86 10 -11 2 -15 0 -10 -5z"/>
<path d="M2690 3452 c0 -5 59 -67 130 -138 72 -71 138 -141 146 -156 16 -31
15 -32 -19 -19 -46 18 -91 20 -124 6 -18 -8 -33 -16 -33 -19 0 -5 408 -687
415 -695 5 -5 -1 135 -9 204 -3 22 -8 90 -11 150 -3 61 -8 121 -10 135 -2 14
-6 66 -9 115 -4 50 -8 111 -11 137 l-5 46 85 28 c47 15 85 31 85 35 0 9 -84
71 -125 92 -43 22 -149 55 -198 62 -23 4 -45 9 -49 11 -14 9 -258 14 -258 6z"/>
<path d="M2970 2022 c-52 -20 -97 -37 -99 -39 -5 -3 33 -79 52 -105 7 -9 41
-33 75 -52 35 -21 77 -56 97 -83 l35 -46 0 126 c0 117 -2 131 -27 182 -15 30
-30 55 -33 54 -3 0 -48 -17 -100 -37z"/>
<path d="M1705 1780 c-134 -31 -277 -191 -444 -500 -41 -74 -103 -180 -140
-235 -67 -102 -221 -267 -260 -280 -11 -3 -21 -10 -21 -15 0 -9 -26 -16 -95
-26 -27 -3 -53 -8 -56 -10 -3 -2 -34 -8 -70 -13 -35 -6 -74 -13 -87 -15 -13
-3 -35 -1 -49 5 -14 5 -28 8 -30 6 -7 -8 -12 -47 -5 -48 4 0 52 -2 107 -3 101
-3 170 11 240 46 59 30 91 29 253 -7 222 -50 216 -49 209 -28 -3 10 -17 56
-32 103 -15 47 -33 106 -40 132 l-13 47 44 67 c102 155 253 307 470 475 56 44
105 79 109 79 4 0 4 -13 0 -28 -3 -16 -1 -41 4 -55 11 -29 19 -13 -116 -259
-64 -117 -164 -234 -191 -223 -8 3 -30 8 -49 11 -27 4 -33 2 -34 -13 -3 -43
-9 -87 -14 -91 -3 -3 -25 -1 -50 5 -24 6 -46 8 -48 6 -2 -2 5 -30 15 -63 25
-75 55 -99 117 -94 129 12 212 103 491 539 66 104 121 196 121 204 6 75 4 93
-11 119 -23 38 -75 76 -122 91 -20 7 -42 19 -49 27 -29 35 -102 56 -154 44z"/>
</g>
</svg>
